<?xml version="1.0" encoding="utf-8"?>
<!-- Generator: Adobe Illustrator 23.0.1, SVG Export Plug-In . SVG Version: 6.00 Build 0)  -->
<svg version="1.1" id="Шар_1" xmlns="http://www.w3.org/2000/svg" xmlns:xlink="http://www.w3.org/1999/xlink" x="0px" y="0px"
	 viewBox="0 0 470.05 469.91" style="enable-background:new 0 0 470.05 469.91;" xml:space="preserve">
<style type="text/css">
	.st0{fill:#FFBC16;}
</style>
<g>
	<g>
		<polygon class="st0" points="193.32,166.63 179.13,166.63 165.52,153.02 165.52,138.82 		"/>
	</g>
	<g>
		<polygon class="st0" points="221.14,166.63 206.94,166.63 165.52,125.21 165.52,111.01 		"/>
	</g>
	<g>
		<path class="st0" d="M297.42,34.64L235,97.06l-62.42-62.42l-7.06-7.07v14.2L235,111.25l68.62-68.61v-14.2L297.42,34.64z
			 M297.42,6.82L235,69.24l-48.51-48.51l-7.1-7.1L165.76,0h-0.24v13.96L235,83.44l55.61-55.61l7.1-7.1l5.91-5.9V0.63L297.42,6.82z"
			/>
	</g>
	<g>
		<polygon class="st0" points="303.62,56.25 303.62,70.45 235,139.07 165.52,69.58 165.52,55.38 235,124.87 		"/>
	</g>
	<g>
		<polygon class="st0" points="303.62,84.07 303.62,98.27 235.25,166.63 234.75,166.63 165.52,97.4 165.52,83.2 235,152.68 		"/>
	</g>
	<g>
		<polygon class="st0" points="303.62,111.88 303.62,126.08 263.06,166.63 248.86,166.63 		"/>
	</g>
	<g>
		<polygon class="st0" points="303.62,139.69 303.62,153.89 290.87,166.63 276.68,166.63 		"/>
	</g>
	<g>
		<polygon class="st0" points="166.63,276.42 166.63,290.61 153.02,304.22 138.82,304.22 		"/>
	</g>
	<g>
		<polygon class="st0" points="166.63,248.6 166.63,262.8 125.21,304.22 111.01,304.22 		"/>
	</g>
	<g>
		<path class="st0" d="M34.64,172.32l62.42,62.42l-62.42,62.42l-7.07,7.06h14.2l69.48-69.48l-68.61-68.62h-14.2L34.64,172.32z
			 M6.82,172.32l62.42,62.42l-48.51,48.51l-7.1,7.1L0,303.98v0.24h13.96l69.48-69.48l-55.61-55.61l-7.1-7.1l-5.9-5.91H0.63
			L6.82,172.32z"/>
	</g>
	<g>
		<polygon class="st0" points="56.25,166.12 70.45,166.12 139.07,234.74 69.58,304.22 55.38,304.22 124.87,234.74 		"/>
	</g>
	<g>
		<polygon class="st0" points="84.07,166.12 98.27,166.12 166.63,234.49 166.63,234.99 97.4,304.22 83.2,304.22 152.68,234.74 		"/>
	</g>
	<g>
		<polygon class="st0" points="111.88,166.12 126.08,166.12 166.63,206.68 166.63,220.88 		"/>
	</g>
	<g>
		<polygon class="st0" points="139.69,166.12 153.89,166.12 166.63,178.87 166.63,193.06 		"/>
	</g>
	<g>
		<polygon class="st0" points="303.42,193.13 303.42,178.94 317.03,165.33 331.23,165.33 		"/>
	</g>
	<g>
		<polygon class="st0" points="303.42,220.95 303.42,206.75 344.84,165.33 359.04,165.33 		"/>
	</g>
	<g>
		<path class="st0" d="M435.41,297.23l-62.42-62.42l62.42-62.42l7.07-7.06h-14.2l-69.48,69.48l68.61,68.62h14.2L435.41,297.23z
			 M463.23,297.23l-62.42-62.42l48.51-48.51l7.1-7.1l13.63-13.63v-0.24h-13.96l-69.48,69.48l55.61,55.61l7.1,7.1l5.9,5.91h14.2
			L463.23,297.23z"/>
	</g>
	<g>
		<polygon class="st0" points="413.8,303.43 399.6,303.43 330.98,234.81 400.47,165.33 414.67,165.33 345.18,234.81 		"/>
	</g>
	<g>
		<polygon class="st0" points="385.98,303.43 371.78,303.43 303.42,235.06 303.42,234.56 372.65,165.33 386.85,165.33 
			317.37,234.81 		"/>
	</g>
	<g>
		<polygon class="st0" points="358.17,303.43 343.97,303.43 303.42,262.87 303.42,248.67 		"/>
	</g>
	<g>
		<polygon class="st0" points="330.36,303.43 316.16,303.43 303.42,290.68 303.42,276.49 		"/>
	</g>
	<g>
		<polygon class="st0" points="276.61,303.28 290.8,303.28 304.41,316.89 304.41,331.09 		"/>
	</g>
	<g>
		<polygon class="st0" points="248.79,303.28 262.99,303.28 304.41,344.7 304.41,358.9 		"/>
	</g>
	<g>
		<path class="st0" d="M172.51,435.27l62.42-62.42l62.42,62.42l7.06,7.07v-14.2l-69.48-69.48l-68.62,68.61v14.2L172.51,435.27z
			 M172.51,463.09l62.42-62.42l48.51,48.51l7.1,7.1l13.63,13.63h0.24v-13.96l-69.48-69.48l-55.61,55.61l-7.1,7.1l-5.91,5.9v14.2
			L172.51,463.09z"/>
	</g>
	<g>
		<polygon class="st0" points="166.31,413.66 166.31,399.46 234.93,330.84 304.41,400.33 304.41,414.53 234.93,345.03 		"/>
	</g>
	<g>
		<polygon class="st0" points="166.31,385.84 166.31,371.64 234.68,303.28 235.18,303.28 304.41,372.51 304.41,386.71 
			234.93,317.22 		"/>
	</g>
	<g>
		<polygon class="st0" points="166.31,358.03 166.31,343.83 206.87,303.28 221.07,303.28 		"/>
	</g>
	<g>
		<polygon class="st0" points="166.31,330.22 166.31,316.02 179.06,303.28 193.25,303.28 		"/>
	</g>
	<g>
		
			<rect x="186.55" y="186.41" transform="matrix(0.7071 -0.7071 0.7071 0.7071 -97.2344 234.9396)" class="st0" width="96.87" height="96.87"/>
	</g>
</g>
</svg>
